<svg xmlns="http://www.w3.org/2000/svg" viewBox="0 0 512 512">
  <style>path{fill:#000}@media(prefers-color-scheme:dark){path{fill:#fff}}</style>
  <path d="M462 198c-3-11-15-18-26-15-11 3-26 11-35 25-12 19-10 44-3 66 5 15 13 28 11 50-2 35-24 70-52 80 3-20-2-42-13-61-29-50-67-135-67-135 30-8 59-23 73-55 39-84-41-143-41-143S283-46 270 6c-13 2-41 39-41 39h-48s-28-37-41-39c-13-2-39 54-39 54s-80 59-41 143c14 30 41 46 69 54l-3 10s-32 82-60 131c-28 50-7 121 32 121h215c13 0 24-8 31-19 34 0 62-23 79-55 21-39 27-88 9-130-13-30-11-48-5-59 5-10 14-15 22-17 11-3 18-15 13-41Z"/>
</svg>
